<mxfile host="app.diagrams.net" agent="Mozilla/5.0 (Windows NT 10.0; Win64; x64) AppleWebKit/537.36 (KHTML, like Gecko) Chrome/133.0.0.0 Safari/537.36" version="26.0.15" pages="4">
  <diagram id="C5RBs43oDa-KdzZeNtuy" name="Maze 1">
    <mxGraphModel dx="794" dy="436" grid="1" gridSize="10" guides="1" tooltips="1" connect="1" arrows="1" fold="1" page="1" pageScale="1" pageWidth="827" pageHeight="1169" math="0" shadow="0">
      <root>
        <object label="" id="WIyWlLk6GJQsqaUBKTNV-0">
          <mxCell />
        </object>
        <mxCell id="WIyWlLk6GJQsqaUBKTNV-1" parent="WIyWlLk6GJQsqaUBKTNV-0" />
        <mxCell id="WIyWlLk6GJQsqaUBKTNV-2" value="" style="rounded=0;html=1;jettySize=auto;orthogonalLoop=1;fontSize=11;endArrow=block;endFill=0;endSize=8;strokeWidth=1;shadow=0;labelBackgroundColor=none;edgeStyle=orthogonalEdgeStyle;exitX=0.5;exitY=1;exitDx=0;exitDy=0;entryX=0.5;entryY=0;entryDx=0;entryDy=0;" parent="WIyWlLk6GJQsqaUBKTNV-1" source="q9ImSeuvMhbNCHdWfSFt-0" target="q9ImSeuvMhbNCHdWfSFt-1" edge="1">
          <mxGeometry relative="1" as="geometry">
            <mxPoint x="50" y="230" as="targetPoint" />
          </mxGeometry>
        </mxCell>
        <mxCell id="q9ImSeuvMhbNCHdWfSFt-0" value="Inicio" style="ellipse;whiteSpace=wrap;html=1;" vertex="1" parent="WIyWlLk6GJQsqaUBKTNV-1">
          <mxGeometry x="160" y="60" width="100" height="60" as="geometry" />
        </mxCell>
        <mxCell id="q9ImSeuvMhbNCHdWfSFt-5" style="edgeStyle=orthogonalEdgeStyle;rounded=0;orthogonalLoop=1;jettySize=auto;html=1;exitX=0.5;exitY=1;exitDx=0;exitDy=0;entryX=0.5;entryY=0;entryDx=0;entryDy=0;" edge="1" parent="WIyWlLk6GJQsqaUBKTNV-1" source="q9ImSeuvMhbNCHdWfSFt-1" target="q9ImSeuvMhbNCHdWfSFt-3">
          <mxGeometry relative="1" as="geometry" />
        </mxCell>
        <mxCell id="q9ImSeuvMhbNCHdWfSFt-1" value="Avanzar" style="rounded=0;whiteSpace=wrap;html=1;" vertex="1" parent="WIyWlLk6GJQsqaUBKTNV-1">
          <mxGeometry x="155" y="230" width="110" height="40" as="geometry" />
        </mxCell>
        <mxCell id="q9ImSeuvMhbNCHdWfSFt-2" value="Avanzar" style="rounded=0;whiteSpace=wrap;html=1;" vertex="1" parent="WIyWlLk6GJQsqaUBKTNV-1">
          <mxGeometry x="155" y="150" width="110" height="40" as="geometry" />
        </mxCell>
        <mxCell id="q9ImSeuvMhbNCHdWfSFt-3" value="Fin" style="ellipse;whiteSpace=wrap;html=1;" vertex="1" parent="WIyWlLk6GJQsqaUBKTNV-1">
          <mxGeometry x="160" y="310" width="100" height="60" as="geometry" />
        </mxCell>
      </root>
    </mxGraphModel>
  </diagram>
  <diagram name="Maze 2" id="xLeY3JK1k-K9wL_eDaAi">
    <mxGraphModel dx="794" dy="436" grid="1" gridSize="10" guides="1" tooltips="1" connect="1" arrows="1" fold="1" page="1" pageScale="1" pageWidth="827" pageHeight="1169" math="0" shadow="0">
      <root>
        <object label="" id="eWAbbQelNKfvKveQxjId-0">
          <mxCell />
        </object>
        <mxCell id="eWAbbQelNKfvKveQxjId-1" parent="eWAbbQelNKfvKveQxjId-0" />
        <mxCell id="eWAbbQelNKfvKveQxjId-2" value="" style="rounded=0;html=1;jettySize=auto;orthogonalLoop=1;fontSize=11;endArrow=block;endFill=0;endSize=8;strokeWidth=1;shadow=0;labelBackgroundColor=none;edgeStyle=orthogonalEdgeStyle;exitX=0.5;exitY=1;exitDx=0;exitDy=0;entryX=0.5;entryY=0;entryDx=0;entryDy=0;" edge="1" parent="eWAbbQelNKfvKveQxjId-1" source="eWAbbQelNKfvKveQxjId-3" target="eWAbbQelNKfvKveQxjId-5">
          <mxGeometry relative="1" as="geometry">
            <mxPoint x="50" y="230" as="targetPoint" />
          </mxGeometry>
        </mxCell>
        <mxCell id="eWAbbQelNKfvKveQxjId-3" value="Inicio" style="ellipse;whiteSpace=wrap;html=1;" vertex="1" parent="eWAbbQelNKfvKveQxjId-1">
          <mxGeometry x="165" y="80" width="100" height="60" as="geometry" />
        </mxCell>
        <mxCell id="eWAbbQelNKfvKveQxjId-4" style="edgeStyle=orthogonalEdgeStyle;rounded=0;orthogonalLoop=1;jettySize=auto;html=1;exitX=0.5;exitY=1;exitDx=0;exitDy=0;entryX=0.5;entryY=0;entryDx=0;entryDy=0;" edge="1" parent="eWAbbQelNKfvKveQxjId-1" source="eWAbbQelNKfvKveQxjId-5" target="eWAbbQelNKfvKveQxjId-7">
          <mxGeometry relative="1" as="geometry" />
        </mxCell>
        <mxCell id="eWAbbQelNKfvKveQxjId-5" value="Girar a la izquierda" style="rounded=0;whiteSpace=wrap;html=1;" vertex="1" parent="eWAbbQelNKfvKveQxjId-1">
          <mxGeometry x="160" y="230" width="110" height="40" as="geometry" />
        </mxCell>
        <mxCell id="eWAbbQelNKfvKveQxjId-6" value="Avanzar" style="rounded=0;whiteSpace=wrap;html=1;" vertex="1" parent="eWAbbQelNKfvKveQxjId-1">
          <mxGeometry x="160" y="300" width="110" height="40" as="geometry" />
        </mxCell>
        <mxCell id="eWAbbQelNKfvKveQxjId-7" value="Fin" style="ellipse;whiteSpace=wrap;html=1;" vertex="1" parent="eWAbbQelNKfvKveQxjId-1">
          <mxGeometry x="165" y="510" width="100" height="60" as="geometry" />
        </mxCell>
        <mxCell id="ODAqleV5Y3lOjbVDqaVV-0" value="Avanzar" style="rounded=0;whiteSpace=wrap;html=1;" vertex="1" parent="eWAbbQelNKfvKveQxjId-1">
          <mxGeometry x="160" y="160" width="110" height="40" as="geometry" />
        </mxCell>
        <mxCell id="ODAqleV5Y3lOjbVDqaVV-1" value="Girar a la derecha" style="rounded=0;whiteSpace=wrap;html=1;" vertex="1" parent="eWAbbQelNKfvKveQxjId-1">
          <mxGeometry x="160" y="370" width="110" height="40" as="geometry" />
        </mxCell>
        <mxCell id="ODAqleV5Y3lOjbVDqaVV-3" value="Avanzar" style="rounded=0;whiteSpace=wrap;html=1;" vertex="1" parent="eWAbbQelNKfvKveQxjId-1">
          <mxGeometry x="160" y="440" width="110" height="40" as="geometry" />
        </mxCell>
      </root>
    </mxGraphModel>
  </diagram>
  <diagram name="Maze 3" id="GX_OpWTbNuQJCNo0JiHS">
    <mxGraphModel dx="794" dy="436" grid="1" gridSize="10" guides="1" tooltips="1" connect="1" arrows="1" fold="1" page="1" pageScale="1" pageWidth="827" pageHeight="1169" math="0" shadow="0">
      <root>
        <object label="" id="vf6O0I3QBfcexqoi14Es-0">
          <mxCell />
        </object>
        <mxCell id="vf6O0I3QBfcexqoi14Es-1" parent="vf6O0I3QBfcexqoi14Es-0" />
        <mxCell id="vf6O0I3QBfcexqoi14Es-2" value="" style="rounded=0;html=1;jettySize=auto;orthogonalLoop=1;fontSize=11;endArrow=block;endFill=0;endSize=8;strokeWidth=1;shadow=0;labelBackgroundColor=none;edgeStyle=orthogonalEdgeStyle;entryX=0.5;entryY=0;entryDx=0;entryDy=0;" edge="1" parent="vf6O0I3QBfcexqoi14Es-1" target="vf6O0I3QBfcexqoi14Es-7">
          <mxGeometry relative="1" as="geometry">
            <mxPoint x="215" y="140" as="sourcePoint" />
            <mxPoint x="215" y="230" as="targetPoint" />
            <Array as="points">
              <mxPoint x="216" y="140" />
              <mxPoint x="216" y="250" />
            </Array>
          </mxGeometry>
        </mxCell>
        <mxCell id="kiwUp2E4NqEymIvTEULg-0" style="edgeStyle=orthogonalEdgeStyle;rounded=0;orthogonalLoop=1;jettySize=auto;html=1;entryX=0;entryY=0.5;entryDx=0;entryDy=0;" edge="1" parent="vf6O0I3QBfcexqoi14Es-1" target="vf6O0I3QBfcexqoi14Es-8">
          <mxGeometry relative="1" as="geometry">
            <mxPoint x="110" y="210" as="targetPoint" />
            <mxPoint x="215" y="160" as="sourcePoint" />
            <Array as="points">
              <mxPoint x="111" y="160" />
              <mxPoint x="111" y="200" />
            </Array>
          </mxGeometry>
        </mxCell>
        <mxCell id="vf6O0I3QBfcexqoi14Es-3" value="Inicio" style="ellipse;whiteSpace=wrap;html=1;" vertex="1" parent="vf6O0I3QBfcexqoi14Es-1">
          <mxGeometry x="165" y="80" width="100" height="60" as="geometry" />
        </mxCell>
        <mxCell id="vf6O0I3QBfcexqoi14Es-7" value="Fin" style="ellipse;whiteSpace=wrap;html=1;" vertex="1" parent="vf6O0I3QBfcexqoi14Es-1">
          <mxGeometry x="165" y="260" width="100" height="60" as="geometry" />
        </mxCell>
        <mxCell id="vf6O0I3QBfcexqoi14Es-8" value="Avanzar" style="rounded=0;whiteSpace=wrap;html=1;" vertex="1" parent="vf6O0I3QBfcexqoi14Es-1">
          <mxGeometry x="160" y="180" width="110" height="40" as="geometry" />
        </mxCell>
        <mxCell id="kiwUp2E4NqEymIvTEULg-1" value="Repetir hasta llegar a la meta" style="text;html=1;align=center;verticalAlign=middle;whiteSpace=wrap;rounded=0;" vertex="1" parent="vf6O0I3QBfcexqoi14Es-1">
          <mxGeometry x="30" y="170" width="80" height="30" as="geometry" />
        </mxCell>
      </root>
    </mxGraphModel>
  </diagram>
  <diagram name="Maze 4" id="AOimOrfKdyatUBLZKbT0">
    <mxGraphModel dx="794" dy="436" grid="1" gridSize="10" guides="1" tooltips="1" connect="1" arrows="1" fold="1" page="1" pageScale="1" pageWidth="827" pageHeight="1169" math="0" shadow="0">
      <root>
        <object label="" id="5sFkzkgpcINkqiPhBMsN-0">
          <mxCell />
        </object>
        <mxCell id="5sFkzkgpcINkqiPhBMsN-1" parent="5sFkzkgpcINkqiPhBMsN-0" />
        <mxCell id="5sFkzkgpcINkqiPhBMsN-2" value="" style="rounded=0;html=1;jettySize=auto;orthogonalLoop=1;fontSize=11;endArrow=block;endFill=0;endSize=8;strokeWidth=1;shadow=0;labelBackgroundColor=none;edgeStyle=orthogonalEdgeStyle;exitX=0.5;exitY=1;exitDx=0;exitDy=0;entryX=0.5;entryY=0;entryDx=0;entryDy=0;" edge="1" parent="5sFkzkgpcINkqiPhBMsN-1" source="5sFkzkgpcINkqiPhBMsN-3" target="5sFkzkgpcINkqiPhBMsN-5">
          <mxGeometry relative="1" as="geometry">
            <mxPoint x="50" y="230" as="targetPoint" />
          </mxGeometry>
        </mxCell>
        <mxCell id="5sFkzkgpcINkqiPhBMsN-3" value="Inicio" style="ellipse;whiteSpace=wrap;html=1;" vertex="1" parent="5sFkzkgpcINkqiPhBMsN-1">
          <mxGeometry x="165" y="80" width="100" height="60" as="geometry" />
        </mxCell>
        <mxCell id="5sFkzkgpcINkqiPhBMsN-4" style="edgeStyle=orthogonalEdgeStyle;rounded=0;orthogonalLoop=1;jettySize=auto;html=1;exitX=0.5;exitY=1;exitDx=0;exitDy=0;entryX=0.5;entryY=0;entryDx=0;entryDy=0;" edge="1" parent="5sFkzkgpcINkqiPhBMsN-1" source="5sFkzkgpcINkqiPhBMsN-5" target="5sFkzkgpcINkqiPhBMsN-7">
          <mxGeometry relative="1" as="geometry" />
        </mxCell>
        <mxCell id="5sFkzkgpcINkqiPhBMsN-5" value="Girar a la izquierda" style="rounded=0;whiteSpace=wrap;html=1;" vertex="1" parent="5sFkzkgpcINkqiPhBMsN-1">
          <mxGeometry x="160" y="230" width="110" height="40" as="geometry" />
        </mxCell>
        <mxCell id="5sFkzkgpcINkqiPhBMsN-6" value="Avanzar" style="rounded=0;whiteSpace=wrap;html=1;" vertex="1" parent="5sFkzkgpcINkqiPhBMsN-1">
          <mxGeometry x="160" y="300" width="110" height="40" as="geometry" />
        </mxCell>
        <mxCell id="5sFkzkgpcINkqiPhBMsN-7" value="Fin" style="ellipse;whiteSpace=wrap;html=1;" vertex="1" parent="5sFkzkgpcINkqiPhBMsN-1">
          <mxGeometry x="165" y="510" width="100" height="60" as="geometry" />
        </mxCell>
        <mxCell id="5sFkzkgpcINkqiPhBMsN-8" value="Avanzar" style="rounded=0;whiteSpace=wrap;html=1;" vertex="1" parent="5sFkzkgpcINkqiPhBMsN-1">
          <mxGeometry x="160" y="160" width="110" height="40" as="geometry" />
        </mxCell>
        <mxCell id="5sFkzkgpcINkqiPhBMsN-9" value="Girar a la derecha" style="rounded=0;whiteSpace=wrap;html=1;" vertex="1" parent="5sFkzkgpcINkqiPhBMsN-1">
          <mxGeometry x="160" y="370" width="110" height="40" as="geometry" />
        </mxCell>
        <mxCell id="5sFkzkgpcINkqiPhBMsN-10" value="Avanzar" style="rounded=0;whiteSpace=wrap;html=1;" vertex="1" parent="5sFkzkgpcINkqiPhBMsN-1">
          <mxGeometry x="160" y="440" width="110" height="40" as="geometry" />
        </mxCell>
      </root>
    </mxGraphModel>
  </diagram>
</mxfile>
